<svg width="82" height="82" viewBox="0 0 82 82" fill="none" xmlns="http://www.w3.org/2000/svg">
<rect x="6.83334" y="6.83333" width="68.3333" height="68.3333" rx="12" fill="url(#paint0_radial_26_540)"/>
<rect x="6.83334" y="6.83333" width="68.3333" height="68.3333" rx="12" fill="url(#paint1_radial_26_540)"/>
<g clip-path="url(#clip0_26_540)">
<path d="M41 17.658C48.6024 17.658 49.5028 17.6869 52.5051 17.8239C55.2811 17.9506 56.7887 18.4145 57.7921 18.8043C59.121 19.3208 60.0696 19.9379 61.0659 20.9341C62.0621 21.9304 62.6792 22.879 63.1956 24.2079C63.5855 25.2113 64.0494 26.7189 64.1761 29.4948C64.3131 32.4972 64.342 33.3976 64.342 41.0001C64.342 48.6025 64.3131 49.5029 64.1761 52.5052C64.0494 55.2812 63.5855 56.7888 63.1956 57.7922C62.6792 59.1211 62.0621 60.0697 61.0659 61.066C60.0696 62.0622 59.121 62.6793 57.7921 63.1957C56.7887 63.5857 55.2811 64.0495 52.5051 64.1762C49.5033 64.3132 48.6029 64.3421 41 64.3421C33.3971 64.3421 32.4966 64.3132 29.4948 64.1762C26.7188 64.0495 25.2112 63.5857 24.2079 63.1957C22.8789 62.6793 21.9303 62.0622 20.934 61.066C19.9378 60.0697 19.3207 59.1211 18.8043 57.7922C18.4144 56.7888 17.9505 55.2812 17.8238 52.5053C17.6868 49.5029 17.6579 48.6025 17.6579 41.0001C17.6579 33.3976 17.6868 32.4972 17.8238 29.4949C17.9505 26.7189 18.4144 25.2113 18.8043 24.2079C19.3207 22.879 19.9378 21.9304 20.934 20.9341C21.9303 19.9379 22.8789 19.3208 24.2079 18.8043C25.2112 18.4145 26.7188 17.9506 29.4947 17.8239C32.4971 17.6869 33.3975 17.658 41 17.658ZM41 12.5278C33.2673 12.5278 32.2978 12.5606 29.2609 12.6991C26.2303 12.8375 24.1607 13.3187 22.3495 14.0226C20.4772 14.7502 18.8894 15.7238 17.3065 17.3066C15.7237 18.8895 14.7501 20.4773 14.0225 22.3496C13.3186 24.1608 12.8373 26.2304 12.699 29.2611C12.5604 32.2978 12.5278 33.2674 12.5278 41.0001C12.5278 48.7327 12.5604 49.7023 12.699 52.7391C12.8373 55.7697 13.3186 57.8393 14.0225 59.6505C14.7501 61.5227 15.7237 63.1106 17.3065 64.6935C18.8894 66.2763 20.4772 67.2499 22.3495 67.9775C24.1607 68.6814 26.2303 69.1627 29.2609 69.301C32.2978 69.4396 33.2673 69.4722 41 69.4722C48.7326 69.4722 49.7022 69.4396 52.739 69.301C55.7696 69.1627 57.8392 68.6814 59.6504 67.9775C61.5227 67.2499 63.1105 66.2763 64.6934 64.6935C66.2762 63.1106 67.2498 61.5228 67.9774 59.6505C68.6813 57.8393 69.1626 55.7697 69.3009 52.7391C69.4395 49.7023 69.4722 48.7327 69.4722 41.0001C69.4722 33.2674 69.4395 32.2978 69.3009 29.2611C69.1626 26.2304 68.6813 24.1608 67.9774 22.3496C67.2498 20.4773 66.2762 18.8895 64.6934 17.3066C63.1105 15.7238 61.5227 14.7502 59.6504 14.0226C57.8392 13.3187 55.7696 12.8375 52.739 12.6991C49.7022 12.5606 48.7326 12.5278 41 12.5278ZM41 26.3791C32.9251 26.3791 26.379 32.9252 26.379 41.0001C26.379 49.0749 32.9251 55.621 41 55.621C49.0748 55.621 55.6209 49.0749 55.6209 41.0001C55.6209 32.9252 49.0748 26.3791 41 26.3791ZM41 50.4909C35.7584 50.4909 31.5092 46.2416 31.5092 41.0001C31.5092 35.7585 35.7584 31.5093 41 31.5093C46.2415 31.5093 50.4908 35.7585 50.4908 41.0001C50.4908 46.2416 46.2415 50.4909 41 50.4909ZM59.6151 25.8015C59.6151 27.6885 58.0855 29.2182 56.1985 29.2182C54.3115 29.2182 52.7818 27.6885 52.7818 25.8015C52.7818 23.9145 54.3115 22.3849 56.1985 22.3849C58.0855 22.3849 59.6151 23.9145 59.6151 25.8015Z" fill="white"/>
</g>
<defs>
<radialGradient id="paint0_radial_26_540" cx="0" cy="0" r="1" gradientUnits="userSpaceOnUse" gradientTransform="translate(32.2361 75.216) scale(85.18 85.18)">
<stop stop-color="#FFDD55"/>
<stop offset="0.328" stop-color="#FF543F"/>
<stop offset="0.348" stop-color="#FC5245"/>
<stop offset="0.504" stop-color="#E64771"/>
<stop offset="0.643" stop-color="#D53E91"/>
<stop offset="0.761" stop-color="#CC39A4"/>
<stop offset="0.841" stop-color="#C837AB"/>
</radialGradient>
<radialGradient id="paint1_radial_26_540" cx="0" cy="0" r="1" gradientUnits="userSpaceOnUse" gradientTransform="translate(17.8292 5.9802) scale(56.5596 37.6857)">
<stop stop-color="#4168C9"/>
<stop offset="0.999" stop-color="#4168C9" stop-opacity="0"/>
</radialGradient>
<clipPath id="clip0_26_540">
<rect width="56.9444" height="56.9444" fill="white" transform="translate(12.5278 12.5278)"/>
</clipPath>
</defs>
</svg>
