<svg width="86" height="82" viewBox="0 0 86 82" fill="none" xmlns="http://www.w3.org/2000/svg">
<path d="M77.33 65.8397C77.33 71.0822 73.0822 75.33 67.8397 75.33H18.4903C13.2497 75.33 9 71.0822 9 65.8397V16.4903C9 11.2478 13.2497 7 18.4903 7H67.8397C73.0822 7 77.33 11.2478 77.33 16.4903V65.8397Z" fill="#0288D1"/>
<path d="M20.6667 32.2778H30.3889V65.3333H20.6667V32.2778ZM25.4986 28.3889H25.4442C22.543 28.3889 20.6667 26.2267 20.6667 23.5258C20.6667 20.7667 22.6014 18.6667 25.555 18.6667C28.5125 18.6667 30.3344 20.7667 30.3889 23.5258C30.3889 26.2247 28.5125 28.3889 25.4986 28.3889ZM67.3333 65.3333H57.6111V47.6408C57.6111 43.3669 55.2292 40.4503 51.4044 40.4503C48.4858 40.4503 46.9069 42.4181 46.1408 44.3197C45.8608 45.0003 45.9444 46.8825 45.9444 47.8333V65.3333H36.2222V32.2778H45.9444V37.3644C47.3464 35.1944 49.5417 32.2778 55.1572 32.2778C62.1144 32.2778 67.3314 36.6528 67.3314 46.4217L67.3333 65.3333Z" fill="white"/>
</svg>
