<svg width="82" height="82" viewBox="0 0 82 82" fill="none" xmlns="http://www.w3.org/2000/svg">
<rect x="6.83333" y="6.83333" width="68.3333" height="68.3333" rx="12" fill="black"/>
<g clip-path="url(#clip0_26_557)">
<path d="M51.9832 33.9881C55.307 36.2941 59.3787 37.6509 63.7765 37.6509V29.4377C62.9442 29.4379 62.114 29.3536 61.2998 29.1862V35.6511C56.9024 35.6511 52.8312 34.2944 49.5065 31.9886V48.7493C49.5065 57.1339 42.5032 63.9304 33.8646 63.9304C30.6414 63.9304 27.6455 62.9847 25.1568 61.3627C27.9973 64.1814 31.9584 65.93 36.3408 65.93C44.9799 65.93 51.9836 59.1334 51.9836 50.7485V33.9881H51.9832ZM55.0384 25.7021C53.3398 23.901 52.2245 21.5734 51.9832 19.0002V17.9438H49.6362C50.227 21.2144 52.242 24.0085 55.0384 25.7021ZM30.6207 54.9286C29.6717 53.7209 29.1588 52.2435 29.1611 50.7245C29.1611 46.8897 32.3644 43.7804 36.3164 43.7804C37.0529 43.7803 37.785 43.8897 38.4869 44.1059V35.7091C37.6666 35.6 36.8388 35.5537 36.0113 35.5707V42.1063C35.3089 41.8901 34.5764 41.7804 33.8397 41.781C29.8877 41.781 26.6846 44.89 26.6846 48.7253C26.6846 51.4371 28.2858 53.7849 30.6207 54.9286Z" fill="#FF004F"/>
<path d="M49.5065 31.9884C52.8312 34.2942 56.9024 35.651 61.2998 35.651V29.186C58.8452 28.6786 56.6722 27.4337 55.0384 25.7021C52.2418 24.0084 50.227 21.2142 49.6362 17.9438H43.4713V50.7482C43.4574 54.5725 40.2596 57.6691 36.3161 57.6691C33.9922 57.6691 31.9277 56.594 30.6202 54.9286C28.2854 53.7849 26.6843 51.4369 26.6843 48.7255C26.6843 44.8905 29.8874 41.7812 33.8394 41.7812C34.5966 41.7812 35.3264 41.8956 36.011 42.1065V35.5708C27.5242 35.741 20.6987 42.4712 20.6987 50.7483C20.6987 54.8802 22.3984 58.626 25.157 61.3628C27.6457 62.9846 30.6416 63.9306 33.8648 63.9306C42.5036 63.9306 49.5067 57.1337 49.5067 48.7493L49.5065 31.9884Z" fill="white"/>
<path d="M61.2998 29.186V27.4379C59.0864 27.4412 56.9164 26.8396 55.0384 25.7019C56.7009 27.4683 58.8899 28.6863 61.2998 29.186ZM49.6362 17.9438C49.5799 17.6313 49.5366 17.3166 49.5065 17.0008V15.9444H40.9945V48.7491C40.9809 52.5729 37.7833 55.6695 33.8394 55.6695C32.6815 55.6695 31.5883 55.4028 30.6202 54.9288C31.9277 56.594 33.9922 57.6689 36.316 57.6689C40.2592 57.6689 43.4575 54.5727 43.4713 50.7483V17.9438H49.6362ZM36.0113 35.5708V33.7099C35.3001 33.6155 34.583 33.5682 33.865 33.5685C25.2256 33.5685 18.2222 40.3653 18.2222 48.7491C18.2222 54.0053 20.9747 58.6376 25.1572 61.3625C22.3986 58.6258 20.6989 54.8799 20.6989 50.7482C20.6989 42.4712 27.5242 35.741 36.0113 35.5708Z" fill="#00F2EA"/>
</g>
<defs>
<clipPath id="clip0_26_557">
<rect width="45.5556" height="50.1111" fill="white" transform="translate(18.2222 15.9444)"/>
</clipPath>
</defs>
</svg>
