<svg width="82" height="82" viewBox="0 0 82 82" fill="none" xmlns="http://www.w3.org/2000/svg">
<path d="M18.04 6.56C11.6998 6.56 6.56 11.6998 6.56 18.04V63.96C6.56 70.3002 11.6998 75.44 18.04 75.44H63.96C70.3002 75.44 75.44 70.3002 75.44 63.96V18.04C75.44 11.6998 70.3002 6.56 63.96 6.56H18.04ZM21.4609 21.32H34.4784L43.7227 34.456L54.94 21.32H59.04L45.5741 37.0858L62.1791 60.68H49.1648L38.4375 45.4395L25.42 60.68H21.32L36.5861 42.8098L21.4609 21.32ZM27.7391 24.6L50.8752 57.4H55.9009L32.7648 24.6H27.7391Z" fill="black"/>
</svg>
