<?xml version="1.0" standalone="no"?>
<!DOCTYPE svg PUBLIC "-//W3C//DTD SVG 20010904//EN"
 "http://www.w3.org/TR/2001/REC-SVG-20010904/DTD/svg10.dtd">
<svg version="1.0" xmlns="http://www.w3.org/2000/svg"
 width="700.000000pt" height="700.000000pt" viewBox="0 0 700.000000 700.000000"
 preserveAspectRatio="xMidYMid meet">
<metadata>
Created by potrace 1.14, written by Peter Selinger 2001-2017
</metadata>
<g transform="translate(0.000000,700.000000) scale(0.100000,-0.100000)"
fill="#000000" stroke="none">
<path d="M4 6561 c-7 -8 -4 -6121 4 -6122 37 -4 6976 -3 6983 2 5 3 8 537 7
1313 l-3 1309 -212 -1 c-150 0 -213 4 -216 12 -2 6 -4 397 -3 869 1 473 -3
861 -7 864 -5 3 -104 5 -220 5 l-212 0 0 870 c0 529 -3 872 -9 876 -11 6
-6105 9 -6112 3z m5678 -440 c3 0 6 -295 6 -655 l0 -654 -1745 0 c-959 0
-1747 -2 -1750 -5 -3 -3 -5 -889 -5 -1969 l0 -1963 -868 0 c-478 0 -872 3
-876 7 -5 6 -10 5202 -5 5238 1 4 5221 5 5243 1z m438 -1750 c3 0 5 -295 5
-655 l0 -653 -872 1 c-480 1 -874 -1 -874 -4 -1 -3 -3 -493 -4 -1090 -2 -597
-3 -1087 -4 -1090 -2 -9 -1729 -5 -1738 3 -4 5 -8 790 -8 1745 0 1357 3 1738
12 1742 10 4 3466 5 3483 1z m441 -1776 c0 -16 1 -409 2 -872 1 -556 -1 -843
-8 -844 -5 -1 -398 -2 -873 -3 -758 -1 -863 1 -867 14 -8 27 -3 1725 5 1730 5
3 398 5 874 5 l866 0 1 -30z"/>
</g>
</svg>
