<svg width="24" height="24" viewBox="0 0 24 24" fill="none" xmlns="http://www.w3.org/2000/svg">
<g clip-path="url(#clip0_8_68)">
<path d="M18.0117 3H5.98828C4.3379 3 3 4.3379 3 5.98828V17.5617C3 19.2121 4.3379 20.55 5.98828 20.55H18.0117C19.6621 20.55 21 19.2121 21 17.5617V5.98828C21 4.3379 19.6621 3 18.0117 3Z" fill="#330000"/>
<path d="M11.7225 13.5321H8.9332L8.36569 15.2951C8.34973 15.3614 8.2889 15.407 8.22078 15.4037H6.80801C6.72744 15.4037 6.69927 15.3595 6.72348 15.2709L9.13846 8.31571C9.16263 8.24327 9.18679 8.16076 9.21094 8.06817C9.24252 7.90706 9.2587 7.74332 9.25924 7.57915C9.25592 7.55587 9.26375 7.53238 9.28037 7.51575C9.297 7.49912 9.32048 7.49129 9.34376 7.49461H11.2637C11.3199 7.49461 11.3521 7.51474 11.3603 7.555L14.1013 15.283C14.1255 15.3635 14.1013 15.4038 14.0288 15.4037H12.4591C12.4033 15.4099 12.3516 15.3737 12.3383 15.3192L11.7225 13.5321ZM9.3679 12.0107H11.2757L11.2486 11.9209L11.2049 11.7787L11.1738 11.6789L11.1241 11.5217L11.0184 11.1907L10.9254 10.8973L10.6841 10.133C10.622 9.93635 10.5643 9.74562 10.5111 9.56079L10.4669 9.40545L10.4153 9.22167L10.3365 8.93695C10.3316 8.91887 10.3267 8.90096 10.3218 8.88324H10.3098C10.2493 9.17312 10.1757 9.46008 10.0892 9.74323L9.91008 10.3194L9.81152 10.6378L9.71203 10.9601C9.69406 11.0184 9.67614 11.0759 9.65827 11.1328L9.60481 11.3015L9.55165 11.4661L9.49878 11.6267L9.44621 11.7833C9.42873 11.8348 9.4113 11.8857 9.39392 11.9359L9.3679 12.0107ZM15.7313 8.77457C15.4822 8.78457 15.2406 8.68795 15.0672 8.50892C14.8944 8.32239 14.8031 8.07468 14.8136 7.82064C14.8047 7.56878 14.9035 7.32506 15.0853 7.15048C15.2588 6.98388 15.4898 6.891 15.7297 6.89056L15.7554 6.89087C16.0452 6.89087 16.2727 6.97741 16.4377 7.15048C16.6059 7.33213 16.695 7.57325 16.6852 7.82064C16.6954 8.07575 16.6017 8.3241 16.4256 8.50892C16.2475 8.68445 16.0064 8.7803 15.7571 8.77543L15.7313 8.77457ZM14.8981 15.283V9.51113C14.8981 9.43869 14.9302 9.40246 14.9947 9.40246H16.4799C16.5443 9.40246 16.5765 9.43868 16.5765 9.51113V15.283C16.5765 15.3635 16.5443 15.4038 16.4799 15.4037H15.0068C14.9382 15.4037 14.902 15.3676 14.8984 15.2954L14.8981 15.283Z" fill="#FF9A00"/>
</g>
<defs>
<clipPath id="clip0_8_68">
<rect width="18" height="17.5781" fill="white" transform="translate(3 3)"/>
</clipPath>
</defs>
</svg>
