<svg width="25" height="24" viewBox="0 0 25 24" fill="none" xmlns="http://www.w3.org/2000/svg">
<g clip-path="url(#clip0_8_54)">
<path d="M18.5117 3H6.48828C4.8379 3 3.5 4.3379 3.5 5.98828V17.5617C3.5 19.2121 4.8379 20.55 6.48828 20.55H18.5117C20.1621 20.55 21.5 19.2121 21.5 17.5617V5.98828C21.5 4.3379 20.1621 3 18.5117 3Z" fill="#001E36"/>
<path d="M7.55313 15.3071V7.59122C7.55313 7.53499 7.57729 7.5067 7.6256 7.5067L7.70201 7.50647L7.83265 7.50503L8.01423 7.50145L8.62245 7.48859L9.27452 7.4765C9.50392 7.47255 9.73132 7.47046 9.95674 7.47046C10.5684 7.47046 11.0836 7.54694 11.5023 7.69989C11.88 7.82765 12.2245 8.03803 12.5106 8.31571C12.7532 8.5564 12.9406 8.84684 13.06 9.167C13.173 9.47858 13.2302 9.80762 13.2291 10.139C13.2291 10.7832 13.0802 11.3145 12.7823 11.7329C12.4908 12.1415 12.0844 12.4536 11.6152 12.6298L11.5748 12.6446C11.0845 12.8275 10.5416 12.8936 9.9461 12.8978L9.85359 12.898L9.71629 12.8973L9.64697 12.8963L9.56977 12.8945L9.52328 12.8927L9.495 12.8912L9.42545 12.8887L9.34045 12.8869L9.21246 12.886C9.20312 12.886 9.19363 12.8859 9.18397 12.8859V15.2951C9.18824 15.325 9.17817 15.3552 9.15678 15.3766C9.1354 15.398 9.10521 15.408 9.07527 15.4037H7.63765C7.58125 15.4037 7.55313 15.3717 7.55313 15.3071ZM9.18396 8.95569V11.4723C9.28848 11.4804 9.38507 11.4844 9.47374 11.4844H9.87222C10.1471 11.4835 10.4203 11.4425 10.6832 11.363L10.7356 11.3466C10.9748 11.2755 11.1886 11.1372 11.3514 10.9481C11.5028 10.7696 11.5812 10.5237 11.5866 10.2104L11.5869 10.1753C11.5933 9.9417 11.5325 9.7112 11.4118 9.51113C11.2849 9.31769 11.1015 9.16802 10.8865 9.08248C10.6058 8.97338 10.306 8.92205 10.005 8.93155L9.8519 8.932L9.7553 8.9328L9.6631 8.93399L9.53303 8.93653L9.43815 8.93922L9.38879 8.94105L9.3229 8.94411L9.26679 8.94757L9.23483 8.9501L9.20722 8.95281C9.20298 8.95327 9.19892 8.95374 9.19505 8.95422L9.18396 8.95569ZM17.8978 11.0147C17.6871 10.9064 17.4637 10.8252 17.2328 10.7727L17.1794 10.7611C16.9252 10.7028 16.6659 10.6707 16.4053 10.6653L16.3402 10.6645C16.1874 10.6604 16.0348 10.6787 15.8873 10.7189C15.7935 10.7398 15.7101 10.7933 15.6519 10.8698C15.6125 10.9311 15.5916 11.0023 15.5915 11.0751C15.5937 11.1457 15.6192 11.2136 15.6639 11.2683C15.7281 11.3433 15.8051 11.4061 15.8914 11.4537L15.9175 11.4675C16.0897 11.5602 16.2671 11.6429 16.4488 11.7151C16.8541 11.8507 17.2413 12.0352 17.602 12.2645C17.8477 12.4195 18.051 12.6332 18.1937 12.8863C18.3136 13.126 18.3737 13.3912 18.3687 13.6591C18.376 14.013 18.2749 14.3606 18.079 14.6553C17.8692 14.9545 17.5779 15.1872 17.2397 15.3255C16.8855 15.4811 16.4506 15.5615 15.9349 15.5667L15.8813 15.567C15.5616 15.5702 15.2424 15.5422 14.9282 15.4835L14.861 15.4704C14.5964 15.4219 14.3388 15.3408 14.0942 15.2289C14.0439 15.2029 14.0118 15.152 14.0097 15.096L14.0097 13.7799C14.0067 13.7539 14.0183 13.7283 14.0399 13.7135C14.0611 13.7015 14.0876 13.7039 14.1063 13.7195C14.3952 13.8899 14.7089 14.0141 15.036 14.0878C15.3244 14.1601 15.6202 14.1986 15.9175 14.2025C16.1992 14.2025 16.4065 14.1663 16.5394 14.0938C16.662 14.0377 16.74 13.9147 16.7386 13.7799C16.7386 13.6754 16.6783 13.5747 16.5575 13.478C16.5069 13.4375 16.4343 13.3935 16.3398 13.3459L16.2946 13.3237L16.2463 13.3009C16.238 13.2971 16.2295 13.2933 16.221 13.2894L16.168 13.2659C16.1589 13.262 16.1497 13.258 16.1403 13.254L16.0827 13.2298C16.0728 13.2257 16.0628 13.2216 16.0527 13.2175L15.9904 13.1925C15.9797 13.1883 15.9689 13.184 15.958 13.1798L15.891 13.1541L15.8209 13.1278C15.4418 12.9959 15.0823 12.8131 14.7523 12.5845C14.5162 12.4203 14.3219 12.2032 14.1848 11.9505C14.066 11.7126 14.006 11.4497 14.0097 11.1838C14.009 10.8643 14.0968 10.5508 14.2632 10.2781C14.4531 9.97785 14.7256 9.73884 15.0481 9.58986C15.4023 9.41289 15.845 9.32434 16.3764 9.32421C16.6876 9.32171 16.9985 9.34392 17.3062 9.39063C17.529 9.41889 17.7468 9.47781 17.9535 9.56571C17.9867 9.57525 18.0135 9.59984 18.0259 9.63212C18.0341 9.66162 18.0381 9.69209 18.038 9.72269V10.9423C18.0397 10.9711 18.0259 10.9987 18.0018 11.0147C17.969 11.031 17.9306 11.031 17.8978 11.0147Z" fill="#31A8FF"/>
</g>
<defs>
<clipPath id="clip0_8_54">
<rect width="18" height="17.5781" fill="white" transform="translate(3.5 3)"/>
</clipPath>
</defs>
</svg>
